<svg xmlns="http://www.w3.org/2000/svg" xmlns:xlink="http://www.w3.org/1999/xlink" width="35px" height="35px" viewBox="0 0 35 35" version="1.1">
    <!-- Generator: Sketch 51.2 (57519) - http://www.bohemiancoding.com/sketch -->
    <title>24</title>
    <desc>Created with Sketch.</desc>
    <defs/>
    <g id="Page-1" stroke="none" stroke-width="1" fill="none" fill-rule="evenodd">
        <g id="Иконки" transform="translate(-364.000000, -187.000000)" fill="#BA081C">
            <g id="karaoke" transform="translate(353.375000, 176.000000)">
                <g id="music" transform="translate(13.842857, 15.471429)">
                    <path d="M26.5032993,7.66315383 C26.2452167,7.66315383 26.0364632,7.45341989 26.0364632,7.19412526 C26.0364632,6.93522149 26.2452167,6.72509669 26.5032993,6.72509669 C26.7609928,6.72509669 26.9701354,6.93522149 26.9701354,7.19412526 C26.9701354,7.45341989 26.7609928,7.66315383 26.5032993,7.66315383 Z" id="Fill-1"/>
                    <path d="M26.9701354,4.5409088 C26.9701354,4.80012526 26.7609928,5.00993737 26.5032993,5.00993737 C26.2452167,5.00993737 26.0364632,4.80012526 26.0364632,4.5409088 C26.0364632,4.28200503 26.2452167,4.07188023 26.5032993,4.07188023 C26.7609928,4.07188023 26.9701354,4.28200503 26.9701354,4.5409088 L26.9701354,4.5409088 Z" id="Fill-2"/>
                    <path d="M27.7821969,10.4819374 C28.7344648,9.37534263 29.25382,7.97802834 29.25382,6.50066651 C29.25382,4.87188663 28.6225798,3.3408992 27.4761858,2.1890432 C26.3300253,1.03757806 24.8061165,0.403295086 23.1849502,0.403295086 C21.7148832,0.403295086 20.3244117,0.925167543 19.2232231,1.88128229 L19.0983444,1.75761509 C18.9144888,1.57586651 18.6190593,1.57805531 18.4379269,1.76246171 C18.2570279,1.94686811 18.2592064,2.24399771 18.4430621,2.42566811 L18.5649063,2.54659931 C17.6276549,3.64866011 17.1160803,5.03526491 17.1160803,6.50066651 C17.1160803,6.68937234 17.1249502,6.87659291 17.1416007,7.06225006 L4.18689775,21.6091712 C4.02163776,21.7948283 4.02949616,22.0775744 4.20455972,22.2537728 L5.52516136,23.5802638 L5.25953159,23.847141 C4.27116167,24.8401527 2.66306678,24.8401527 1.67461905,23.847141 C0.68624913,22.8541294 0.68624913,21.2381696 1.67461905,20.2451579 L10.4427355,11.4358633 C11.7952376,10.0770094 11.7952376,7.8662432 10.4427355,6.50738926 C9.09023337,5.14861349 6.88948999,5.14861349 5.5372991,6.50738926 L0.135538093,11.9342062 L0.795722205,12.5977253 L6.1974054,7.17067383 C7.18577532,6.17766217 8.79418145,6.17766217 9.78231795,7.17067383 C10.7706879,8.16368549 10.7706879,9.77933257 9.78231795,10.7723442 L1.01420152,19.5818734 C-0.337989367,20.9407273 -0.337989367,23.1514935 1.01420152,24.5103474 C1.69049148,25.1898135 2.57888066,25.529312 3.46695861,25.529312 C4.35534779,25.529312 5.24373697,25.1898135 5.91994912,24.5103474 L6.18526767,24.2434702 L7.50555808,25.5702738 C7.59643552,25.6615781 7.71617899,25.7076992 7.83592246,25.7076992 C7.94687385,25.7076992 8.05805866,25.6679881 8.14714655,25.5879406 L20.5645211,14.4256078 C20.5663106,14.4241225 22.6260695,12.5723977 22.6260695,12.5723977 C22.8108588,12.5892046 22.9971264,12.5980379 23.1849502,12.5980379 C24.6432685,12.5980379 26.0230805,12.0844517 27.1199898,11.1430331 L27.2424565,11.2667003 C27.3336452,11.3589426 27.4533886,11.4047511 27.5734433,11.4047511 C27.6922531,11.4047511 27.8113742,11.3592553 27.9025628,11.2682638 C28.0852514,11.0856553 28.086185,10.7885257 27.9041189,10.6049792 L27.7821969,10.4819374 Z M7.85358443,24.593131 L5.17713502,21.904112 L15.5076742,10.3042537 C15.9195015,11.1449093 16.4639102,11.9085659 17.1331199,12.5809966 C17.8024073,13.253349 18.5624943,13.8002363 19.3995315,14.2143104 L7.85358443,24.593131 Z M20.1572066,13.5327337 C19.2748863,13.1501627 18.4804868,12.6081221 17.793304,11.917712 C17.1060434,11.2273019 16.5666142,10.4290935 16.1857537,9.54262949 L17.3607803,8.22325211 C17.6431383,9.19148343 18.1637384,10.0788855 18.8937924,10.812368 C19.6235351,11.5455378 20.5067112,12.0688955 21.4704945,12.352267 L20.1572066,13.5327337 Z M23.1849502,11.6599808 C21.8133078,11.6599808 20.5237508,11.1231776 19.5538987,10.1487707 C18.5841244,9.17444206 18.0497526,7.87875063 18.0497526,6.50066651 C18.0497526,5.28353737 18.4671041,4.13144686 19.2324042,3.2073824 L20.2164948,4.18147657 C20.3073722,4.27160823 20.4258708,4.31647863 20.5441359,4.31647863 C20.6648131,4.31647863 20.7854902,4.26973211 20.8766011,4.17662994 C21.0578113,3.99222354 21.0553215,3.69509394 20.8717771,3.51342354 L19.8915768,2.54292526 C20.8137338,1.7655104 21.9668191,1.34135223 23.1849502,1.34135223 C24.5565926,1.34135223 25.8462274,1.87792091 26.8160017,2.85256229 C27.786165,3.82696914 28.3201478,5.1225824 28.3201478,6.50066651 C28.3201478,7.7267072 27.896494,8.8867712 27.1205345,9.81411886 L22.1954132,4.84319771 C22.0136583,4.65941669 21.7179176,4.65879131 21.5352291,4.84171246 C21.3526183,5.02432091 21.3519959,5.32137234 21.5337507,5.50491886 L26.4586386,10.4755273 C25.5395161,11.2423109 24.3942892,11.6599808 23.1849502,11.6599808 L23.1849502,11.6599808 Z" id="Fill-4"/>
                </g>
            </g>
        </g>
    </g>
</svg>